<?xml version="1.0" encoding="utf-8"?>
<svg version="1.0" id="iconos" xmlns="http://www.w3.org/2000/svg" width="200" xmlns:xlink="http://www.w3.org/1999/xlink" x="0px" y="0px"
	 viewBox="0 0 198.3 58.2" enable-background="new 0 0 198.3 58.2" xml:space="preserve">
<path fill="#C4C4C4" d="M85.5,51.2v-3.1l14.3-25.2H85.4v-6.8c3.3,0,17.2,0,20.5,0c0.5,0,2.5-0.1,2.5,2.6c0,1,0,2,0,3L94.3,47h14.3
	v7.2c-6.1,0-14.1,0-20.2,0C85.3,54.3,85.5,52,85.5,51.2"/>
<path fill="#C4C4C4" d="M74.9,54.3V24.7h7.7v29.6H74.9"/>
<path fill="#C4C4C4" d="M57.5,16.2V4.6h7.7v11.6H72v6.8h-6.8v20.4c0,1.6,0.4,2.7,1.1,3.2c0.6,0.3,1.7,0.5,3.6,0.5v7.2h-3.1
	c-3.1,0-5.6-1-7.2-2.9c-1.4-1.6-2-3.7-2-6V22.9L57.5,16.2"/>
<path fill="#C4C4C4" d="M151.9,4.7h7.6v49.5h-11.1c-4.5,0-7.7-1.7-9.6-5.2c-0.9-1.7-1.4-4.2-1.4-7.4v-12c0-3.3,0.4-5.8,1.4-7.4
	c1.9-3.5,5.1-5.2,9.6-5.2c1.3,0,2.4,0.1,3.5,0.4V4.7z M151.9,44.2V26.1c-0.4-1.8-1.5-2.7-3.5-2.7c-2.4,0-3.6,1.4-3.6,4.2v15.1
	c0,2.8,1.2,4.2,3.6,4.2C150.4,46.9,151.5,46,151.9,44.2"/>
<path fill="#C4C4C4" d="M133.9,34.4h-15.2v8.9c0,2.5,1.3,3.7,3.8,3.7c2.3,0,3.5-1.3,3.8-3.8h7.6c0,3.3-1,6-3.1,8.2
	c-2.1,2.2-4.9,3.3-8.3,3.3c-4.7,0-8-1.8-10-5.5c-1-1.8-1.4-4.3-1.4-7.7V29c0-3.4,0.5-6,1.4-7.7c2-3.7,5.3-5.5,10-5.5
	c3.4,0,6.2,1.1,8.3,3.4c2.1,2.3,3.1,5.1,3.1,8.5v0.1L133.9,34.4z M126.2,27.7c0-2.9-1.3-4.4-3.8-4.4c-2.5,0-3.8,1.4-3.8,4.4H126.2"
	/>
<path fill="#C4C4C4" d="M162.6,54.3V24.7h7.6v29.6H162.6"/>
<path fill="#C4C4C4" d="M187.3,16.2V4.6h-7.6v11.6h-6.8v6.8V23h6.8v20.3c0,1.6-0.4,2.7-1.1,3.2c-0.6,0.3-1.8,0.5-3.6,0.5v7.2h3.2
	c3.1,0,5.6-1,7.2-2.9c1.4-1.6,2-3.7,2-6V23h2.7v-6.8L187.3,16.2"/>
<path fill="#C4C4C4" d="M0.7,40.4l17.9-17.9L0.7,4.6V40.4z"/>
<path fill="#C4C4C4" d="M0.7,54.3h13.9L0.7,40.4V54.3z"/>
<path fill="#C4C4C4" d="M14.6,54.3l17.9-17.9l17.9,17.9H14.6z"/>
<path fill="#C4C4C4" d="M50.3,29.4L25.5,4.6h24.8V29.4z"/>
</svg>
